<svg width="34" height="30" viewBox="0 0 34 30" fill="none" xmlns="http://www.w3.org/2000/svg">
<path d="M30.3333 0H3.66666C1.82833 0 0.333328 1.495 0.333328 3.33333V26.6667C0.333328 28.505 1.82833 30 3.66666 30H30.3333C32.1717 30 33.6667 28.505 33.6667 26.6667V3.33333C33.6667 1.495 32.1717 0 30.3333 0ZM30.335 10C30.3333 10 30.3333 10 30.335 10H29.56L25.115 3.33333H30.3333L30.335 10ZM22.8333 20L13.6667 25V15L22.8333 20ZM21.2267 10L16.7817 3.33333H21.1083L25.5533 10H21.2267ZM17.22 10H12.8933L8.44833 3.33333H12.775L17.22 10ZM3.66666 3.33333H4.44166L8.88666 10H3.66666V3.33333Z" fill="#006EFF"/>
</svg>
